<?xml version="1.0" standalone="no"?><svg xmlns="http://www.w3.org/2000/svg" viewBox="0 0 1440 320"><path fill="#B6E1E4" fill-opacity="1" d="M0,288L14.1,277.3C28.2,267,56,245,85,245.3C112.9,245,141,267,169,240C197.6,213,226,139,254,133.3C282.4,128,311,192,339,208C367.1,224,395,192,424,192C451.8,192,480,224,508,213.3C536.5,203,565,149,593,106.7C621.2,64,649,32,678,32C705.9,32,734,64,762,96C790.6,128,819,160,847,170.7C875.3,181,904,171,932,176C960,181,988,203,1016,224C1044.7,245,1073,267,1101,240C1129.4,213,1158,139,1186,128C1214.1,117,1242,171,1271,181.3C1298.8,192,1327,160,1355,165.3C1383.5,171,1412,213,1426,234.7L1440,256L1440,320L1425.9,320C1411.8,320,1384,320,1355,320C1327.1,320,1299,320,1271,320C1242.4,320,1214,320,1186,320C1157.6,320,1129,320,1101,320C1072.9,320,1045,320,1016,320C988.2,320,960,320,932,320C903.5,320,875,320,847,320C818.8,320,791,320,762,320C734.1,320,706,320,678,320C649.4,320,621,320,593,320C564.7,320,536,320,508,320C480,320,452,320,424,320C395.3,320,367,320,339,320C310.6,320,282,320,254,320C225.9,320,198,320,169,320C141.2,320,113,320,85,320C56.5,320,28,320,14,320L0,320Z"></path></svg>